PathFileType  4	(X/Y/Z) C:\Users\antoi\Documents\MyRepositories\mobilecap\ResultsAnalysis
DataRate	CameraRate	NumFrames	NumMarkers	Units	OrigDataRate	OrigDataStartFrame	OrigNumFrames
100.0	100.0	6	51	mm	100.0	179	286
Frame#	Time	r_knee			r_shank_antsup			r_ankle			r_calc			r_5meta			r_toe			L_knee			L_shank_antsup			L_ankle			L_calc			L_5meta			L_toe			r_sh2			r_sh3			r_sh4			L_sh2			L_sh3			r_thigh1			r_thigh2			r_thigh3			r_thigh4			r_thigh5			L_thigh1			L_thigh2			L_thigh3			L_thigh4			r.ASIS			r.PSIS			L.ASIS			L.PSIS			C7			R_Shoulder			L_Shoulder			R_Sternum			L_Sternum			R_humerus			R_elbow_med			R_elbow_lat			R_forearm			R_wrist_radius			R_wrist_ulna			L_humerus			L_elbow_med			L_elbow_lat			L_forearm			L_wrist_radius			L_wrist_ulna			R_HJC			L_HJC			R_HJC_reg			L_HJC_reg			
		X1	Y1	Z1	X2	Y2	Z2	X3	Y3	Z3	X4	Y4	Z4	X5	Y5	Z5	X6	Y6	Z6	X7	Y7	Z7	X8	Y8	Z8	X9	Y9	Z9	X10	Y10	Z10	X11	Y11	Z11	X12	Y12	Z12	X13	Y13	Z13	X14	Y14	Z14	X15	Y15	Z15	X16	Y16	Z16	X17	Y17	Z17	X18	Y18	Z18	X19	Y19	Z19	X20	Y20	Z20	X21	Y21	Z21	X22	Y22	Z22	X23	Y23	Z23	X24	Y24	Z24	X25	Y25	Z25	X26	Y26	Z26	X27	Y27	Z27	X28	Y28	Z28	X29	Y29	Z29	X30	Y30	Z30	X31	Y31	Z31	X32	Y32	Z32	X33	Y33	Z33	X34	Y34	Z34	X35	Y35	Z35	X36	Y36	Z36	X37	Y37	Z37	X38	Y38	Z38	X39	Y39	Z39	X40	Y40	Z40	X41	Y41	Z41	X42	Y42	Z42	X43	Y43	Z43	X44	Y44	Z44	X45	Y45	Z45	X46	Y46	Z46	X47	Y47	Z47	X48	Y48	Z48	X49	Y49	Z49	X50	Y50	Z50	X51	Y51	Z51	

179	1.78000000	26.61530	520.61302	-326.12637	8.16828	383.82095	-332.74627	-254.17811	131.78529	-347.82584	-319.72252	115.68137	-407.71327	-145.37048	42.28420	-312.96604	-101.94300	59.84068	-364.42824	17.97434	478.41600	-805.73605	-28.15081	303.69285	-821.12045	-285.13405	136.84900	-827.04647	-342.96355	88.29503	-762.42258	-207.15027	62.74226	-940.00798	-143.26914	67.33645	-895.90302	-60.77039	293.29772	-345.86839	-49.41638	419.11294	-300.47218	-120.62285	331.63758	-302.39766	-83.84084	368.54463	-848.35178	-166.20995	281.06105	-841.29092	-243.40947	607.89157	-331.87729	-133.81455	601.79184	-324.38182	-116.55535	536.24860	-310.89737	-253.15006	490.62656	-344.20675	-134.16453	485.43753	-331.47365	-230.45987	608.33251	-743.71450	-100.64445	581.66578	-769.22119	-264.74500	509.18280	-777.21009	-132.02181	485.90008	-811.02397	-297.49071	643.68774	-405.43276	-465.51324	703.04387	-511.99033	-286.98074	612.21196	-677.53964	-456.93767	698.86535	-599.81501	-60.30924	1009.30303	-504.11663	18.64541	913.62241	-364.00004	-13.40455	971.08678	-666.50221	6.45358	852.00151	-501.97918	2.31060	855.53568	-547.71162	160.20963	745.48617	-304.42063	191.80304	590.82051	-303.95133	214.35884	646.01616	-238.54901	338.45201	736.59660	-389.86545	382.54702	773.12987	-457.29092	409.59882	760.89776	-435.24836	99.46506	808.03756	-828.31292	72.94269	686.43964	-885.66234	104.40282	758.65202	-925.77563	242.19272	811.47953	-784.36917	276.39076	825.54121	-727.20162	301.80036	818.65254	-750.74930	-392.29251	563.89436	-439.95547	-388.04199	547.42715	-636.69736	-384.07503	563.22085	-449.03854	-366.51234	554.66359	-628.90175	
180	1.79000000	29.46926	520.01224	-326.31574	10.11106	383.35059	-332.71871	-253.57965	132.63276	-347.48638	-319.14097	116.95731	-407.07404	-145.17781	42.16323	-312.73739	-101.71718	59.70905	-364.35490	19.17327	478.08075	-807.06949	-27.49410	303.30627	-822.32728	-284.98709	137.02671	-827.14908	-342.70197	88.58870	-762.21807	-207.23214	62.52405	-940.27726	-143.23701	67.29352	-896.41550	-59.26458	293.17412	-345.69266	-47.17530	418.97539	-300.40143	-118.60179	331.79994	-302.02648	-82.78106	369.05514	-850.95345	-165.65299	281.02976	-842.11649	-239.99757	609.12181	-331.48468	-130.26306	602.28922	-324.31455	-113.44669	536.45837	-310.84038	-250.43268	491.73526	-343.87646	-131.39314	485.79860	-331.48266	-227.97316	609.67597	-743.68441	-98.53168	582.33947	-770.01312	-262.76283	511.44539	-777.84117	-130.74221	486.91574	-811.99222	-293.75124	645.09082	-405.42097	-462.22709	705.75454	-511.04630	-284.82365	613.25507	-677.06385	-453.97375	701.37664	-598.99998	-56.08617	1010.59478	-504.39538	22.61422	914.35326	-364.65049	-9.90817	972.44340	-666.79228	10.18791	853.16399	-502.78746	5.90049	856.79478	-548.57689	163.27876	745.30063	-306.43578	193.60980	590.56556	-307.17947	217.12078	645.27267	-241.52608	340.29570	736.28050	-393.30748	383.81344	773.09521	-460.82913	410.96089	760.49507	-439.23078	103.34105	808.95563	-827.45500	77.17366	686.96570	-884.52128	109.31476	759.08167	-924.45670	246.59329	811.20077	-782.11912	280.44003	825.00611	-724.73542	306.02880	818.25242	-748.80223	-389.50881	566.07375	-439.18819	-386.29464	549.31858	-635.92592	-381.30459	565.42542	-448.55142	-364.45162	556.48638	-628.14908	
181	1.80000000	32.16807	519.68746	-326.55431	11.98385	383.12963	-332.57982	-252.97283	133.61688	-346.92516	-318.51082	118.32993	-406.31014	-144.92029	41.97420	-312.52932	-101.50736	59.61380	-364.20708	20.14657	478.04445	-808.24589	-26.97346	303.19317	-823.45772	-284.78298	137.24289	-827.12017	-342.20502	89.15749	-761.95150	-207.32829	62.38322	-940.52646	-143.15611	67.28059	-896.94743	-57.76673	293.16774	-345.38501	-45.07567	419.14021	-300.40854	-116.86130	332.30855	-301.78461	-82.08188	368.98538	-852.07277	-165.29473	281.06673	-842.60275	-236.65134	610.93226	-331.07658	-126.77734	603.33318	-324.34626	-110.42919	537.18405	-310.89795	-247.77934	493.74811	-343.53514	-128.72668	486.70727	-331.62866	-225.38668	611.90429	-743.59991	-96.39299	583.59271	-770.67649	-261.22105	513.78934	-777.41495	-129.51437	488.52080	-812.83033	-290.23864	647.46429	-405.08343	-458.86637	709.55836	-510.04371	-282.24847	615.70080	-676.32809	-450.75567	705.13065	-598.12306	-52.05962	1013.19409	-504.66920	26.48209	916.72151	-365.10980	-6.49478	975.02872	-667.17330	13.81632	855.74096	-503.43675	9.34562	859.41494	-549.22970	166.05681	746.26236	-308.08196	194.85599	591.32188	-310.17201	219.34809	645.51076	-244.23816	341.56022	736.88663	-396.62391	384.50974	774.14855	-464.20763	411.87745	761.00155	-442.84315	106.84770	810.97377	-827.07310	80.74481	688.68738	-883.52597	113.58446	760.61271	-923.37496	250.42194	812.07852	-780.32755	283.97841	825.59238	-722.55026	309.69598	818.93921	-746.85786	-386.82196	569.25298	-438.44277	-384.20220	552.53497	-635.19285	-378.60791	568.63397	-448.05072	-362.09364	559.61844	-627.38856	
182	1.81000000	34.91088	519.64871	-326.95949	13.87318	383.19727	-332.49673	-252.27949	134.70440	-346.21420	-317.82496	119.85900	-405.55338	-144.67131	41.85157	-312.42957	-101.28676	59.57000	-364.03872	20.90974	478.27518	-809.24535	-26.53049	303.41747	-824.48313	-284.48413	137.56131	-827.06578	-341.56223	89.83918	-761.63349	-207.39433	62.30444	-940.65995	-143.07725	67.24710	-897.37362	-56.21111	293.41570	-345.10293	-43.07202	419.64050	-300.55298	-115.33656	333.17867	-301.69744	-81.79379	368.27903	-851.43300	-164.99967	281.23685	-842.80430	-233.19731	613.36058	-330.86254	-123.21671	604.83951	-324.34525	-107.36484	538.55811	-310.94031	-245.10936	496.60671	-343.37181	-126.13069	488.32065	-331.70866	-222.72122	614.89612	-743.62604	-94.15704	585.31548	-771.15697	-260.09621	516.40996	-776.53989	-128.39881	490.56384	-813.41048	-287.16085	651.01488	-404.39811	-455.50065	714.31290	-508.97616	-279.37266	619.74515	-675.54147	-447.44653	710.03586	-597.16370	-48.25580	1017.07852	-504.93012	30.25023	920.56608	-365.51905	-3.17298	978.86152	-667.61582	17.31458	859.68735	-503.97752	12.70482	863.34611	-549.73434	168.58112	748.39469	-309.50911	195.65144	593.19208	-312.97138	221.23111	646.73772	-246.73813	342.44161	738.49387	-399.59882	384.73183	776.24226	-467.26941	412.36654	762.46715	-446.12007	110.02828	814.03976	-826.69970	83.77757	691.50412	-882.33982	117.20279	763.14812	-922.45404	253.52363	814.00315	-778.74885	287.01903	827.35855	-720.67791	312.83750	820.68210	-744.72359	-384.20094	573.43552	-437.77057	-381.74697	557.11172	-634.55602	-375.93968	572.79494	-447.47213	-359.56849	564.10120	-626.72967	
183	1.82000000	37.73637	519.86886	-327.57703	15.83647	383.49963	-332.59650	-251.40080	135.88608	-345.50118	-317.01637	121.58843	-404.69304	-144.46345	41.85546	-312.33541	-100.98522	59.52860	-363.88783	21.55907	478.73272	-810.06029	-25.85220	303.96354	-825.61434	-284.08102	138.01089	-827.00517	-340.90262	90.38633	-761.21577	-207.40787	62.30229	-940.66722	-142.99351	67.19975	-897.61969	-54.58740	293.88757	-344.94267	-41.00582	420.30818	-300.84216	-113.63143	334.21383	-301.66391	-81.65654	367.88138	-850.80439	-164.58752	281.59647	-843.03224	-229.49481	616.49569	-330.80171	-119.44543	606.80155	-324.38548	-104.18562	540.59440	-310.98234	-242.48531	500.24704	-343.21770	-123.58330	490.57035	-331.66603	-219.95798	618.48554	-743.76895	-91.82254	587.36935	-771.53523	-258.89117	520.00820	-776.01363	-127.43138	492.90389	-813.67762	-284.00352	655.54068	-403.61980	-452.15954	720.01337	-507.79053	-276.65750	624.86047	-674.87308	-444.24553	715.92166	-596.12162	-44.68563	1022.19609	-505.14481	33.90938	925.62415	-366.02005	-0.04640	983.86721	-667.95745	20.76057	864.91456	-504.45568	15.99170	868.51508	-550.10680	170.87314	751.74482	-310.86651	195.72184	596.66943	-315.69897	222.83937	649.16522	-249.06376	343.04773	741.15029	-402.28898	384.93815	779.31322	-469.72559	412.58901	764.90372	-449.24420	112.85585	818.03320	-825.98775	86.35654	695.36966	-881.14330	120.16031	766.76794	-921.67230	256.03094	816.93837	-777.30785	289.56186	830.22250	-719.00044	315.54465	823.54100	-742.67430	-381.51584	578.57375	-437.07298	-379.37289	562.71049	-633.89999	-373.22201	577.86391	-446.77062	-357.15593	569.55745	-626.09394	
184	1.83000000	40.47675	520.37337	-328.33690	17.83110	384.01025	-332.83843	-250.29365	137.18075	-344.77201	-316.07807	123.47140	-403.65910	-144.18365	41.95392	-312.14902	-100.59570	59.46316	-363.76344	22.15999	479.46764	-810.62247	-25.08885	304.69027	-826.57358	-283.58498	138.51895	-826.74137	-340.21030	90.86488	-760.60864	-207.38157	62.43890	-940.55030	-142.87700	67.21855	-897.69047	-52.93855	294.52218	-344.90093	-38.81663	421.11444	-301.23501	-111.79254	335.36458	-301.72831	-81.49565	368.27175	-851.02222	-164.06614	282.12704	-843.20035	-225.64876	620.42252	-330.90023	-115.55550	609.36611	-324.67099	-101.03841	543.18675	-311.17635	-239.94915	504.53594	-343.00045	-121.12884	493.38513	-331.64702	-217.16018	622.61334	-743.84132	-89.47562	589.70962	-771.86289	-257.46381	524.65920	-775.77012	-126.55803	495.60063	-813.76863	-280.10616	660.65596	-403.09475	-448.84067	726.70095	-506.42092	-274.18453	630.67361	-674.23380	-441.12948	722.72194	-595.03303	-41.31971	1028.47110	-505.31275	37.39597	931.91097	-366.46985	2.79432	989.86911	-668.20525	24.20470	871.39051	-504.87874	19.18585	874.87130	-550.36770	172.96196	756.30956	-312.18513	195.49691	601.34259	-318.15848	224.10613	652.89038	-251.19862	343.42291	744.84450	-404.87491	385.13235	783.26125	-471.99339	412.67934	768.32789	-452.27185	115.35420	822.98292	-825.23184	88.40083	700.29238	-880.30274	122.52878	771.49095	-921.08456	258.20047	821.04455	-776.17732	291.65180	834.18726	-717.60574	317.73105	827.59426	-741.14530	-378.54945	584.53674	-436.33539	-377.24208	569.11879	-633.20387	-370.29336	583.83407	-446.18460	-354.69584	575.78556	-625.41358	
